<svg height="512" viewBox="0 0 60 59" width="512" xmlns="http://www.w3.org/2000/svg"><g id="Page-1" fill="none" fill-rule="evenodd"><g id="004---Large-Bin" fill="rgb(0,0,0)" fill-rule="nonzero"><rect id="Rectangle-path" height="4" rx="1" width="58" x="1" y="9"/><path id="Shape" d="m56 49.1v-3.04l1.848-30.53c.0082787-.1377252-.0407219-.2727498-.1354023-.373111-.0946804-.1003613-.2266241-.1571376-.3645977-.156889h-11.971c-.2711442-.0000917-.4929503.2159474-.5.487l-.833 31c-.0035072.1348461.0476188.2653885.1417699.3619875.094151.0965989.2233384.1510581.3582301.1510125h1.838l-.724 1.447c-.1692635.3387294-.5153343.5527978-.894.553h-29.528c-.3784432-.0000127-.7244574-.2136591-.894-.552l-.724-1.448h1.838c.1348917.0000456.2640791-.0544136.3582301-.1510125.0941511-.096599.1452771-.2271414.1417699-.3619875l-.833-31c-.0070497-.2710526-.2288558-.4870917-.5-.487h-11.972c-.13797356-.0002486-.26991726.0565277-.36459769.156889-.09468042.1003612-.14368096.2353858-.13540231.373111l1.849 30.53v3.04c-2.51496322.5133647-4.23266954 2.8476987-3.97468076 5.4015243.25798877 2.5538256 2.40785717 4.4974552 4.97468076 4.4974552s4.71669199-1.9436296 4.97468077-4.4974552c.25798873-2.5538256-1.45971755-4.8881596-3.97468077-5.4015243v-2.1h5.382l1.171 2.342c.508231 1.0161218 1.5468652 1.6579614 2.683 1.658h29.528c1.1361348-.0000386 2.174769-.6418782 2.683-1.658l1.171-2.342h5.382v2.1c-2.5149632.5133647-4.2326695 2.8476987-3.9746808 5.4015243.2579888 2.5538256 2.4078572 4.4974552 4.9746808 4.4974552s4.716692-1.9436296 4.9746808-4.4974552c.2579887-2.5538256-1.4597176-4.8881596-3.9746808-5.4015243zm-48 4.9c.0063217 1.5272079-1.13568032 2.8154186-2.65263035 2.9922422-1.51695003.1768237-2.92462954-.8141827-3.26974327-2.3018992-.34511373-1.4877166.48250048-2.9972562 1.92237362-3.506343v2.816c0 .5522847.44771525 1 1 1s1-.4477153 1-1v-2.816c1.19435087.4222546 1.99474861 1.5492146 2 2.816zm47 3c-1.4594373.0027654-2.7080809-1.0474881-2.9553873-2.485822s.5788398-2.8453257 1.9553873-3.330178v2.816c0 .5522847.4477153 1 1 1s1-.4477153 1-1v-2.816c1.3765475.4848523 2.2026937 1.8918441 1.9553873 3.330178s-1.49595 2.4885874-2.9553873 2.485822z"/><path id="Shape" d="m29 46.5v-31c0-.2761424-.2238576-.5-.5-.5h-10.876c-.1348917-.0000456-.2640791.0544136-.3582301.1510125-.0941511.096599-.1452771.2271414-.1417699.3619875l.833 31c.0070497.2710526.2288558.4870917.5.487h10.043c.2761424 0 .5-.2238576.5-.5z"/><path id="Shape" d="m42.043 46.513.833-31c.0035072-.1348461-.0476188-.2653885-.1417699-.3619875-.094151-.0965989-.2233384-.1510581-.3582301-.1510125h-10.876c-.2761424 0-.5.2238576-.5.5v31c0 .2761424.2238576.5.5.5h10.043c.2711442.0000917.4929503-.2159474.5-.487z"/><path id="Shape" d="m11.5 3h-7.5c-1.10320187.0032948-1.9967052.89679813-2 2v1.5c0 .27614237.22385763.5.5.5h9c.2761424 0 .5-.22385763.5-.5v-3c0-.27614237-.2238576-.5-.5-.5z"/><path id="Shape" d="m58 5c-.0032948-1.10320187-.8967981-1.9967052-2-2h-7.5c-.2761424 0-.5.22385763-.5.5v3c0 .27614237.2238576.5.5.5h9c.2761424 0 .5-.22385763.5-.5z"/><path id="Shape" d="m46 2c0-1.1045695-.8954305-2-2-2h-28c-1.1045695 0-2 .8954305-2 2v4.5c0 .27614237.2238576.5.5.5h31c.2761424 0 .5-.22385763.5-.5z"/></g></g></svg>